<svg width="50" height="60" viewBox="0 0 50 60" fill="none" xmlns="http://www.w3.org/2000/svg">
<path d="M25.9078 59.0345C25.5502 59.8087 24.4498 59.8087 24.0922 59.0345L18.7274 47.4193C18.4213 46.7567 18.9053 46 19.6352 46H30.3648C31.0947 46 31.5787 46.7567 31.2727 47.4193L25.9078 59.0345Z" fill="#57CB6A"/>
<path d="M50 25C50 38.8071 38.8071 50 25 50C11.1929 50 0 38.8071 0 25C0 11.1929 11.1929 0 25 0C38.8071 0 50 11.1929 50 25Z" fill="#57CB6A"/>
<path d="M25 45C36.0469 45 45 36.0469 45 25C45 13.9531 36.0469 5 25 5C13.9531 5 5 13.9531 5 25C5 36.0469 13.9531 45 25 45ZM17.8203 30.4297C19.2188 32.0469 21.6094 33.75 25 33.75C28.3906 33.75 30.7812 32.0469 32.1797 30.4297C32.6328 29.9062 33.4219 29.8516 33.9453 30.3047C34.4688 30.7578 34.5234 31.5469 34.0703 32.0703C32.3281 34.0703 29.3047 36.25 25 36.25C20.6953 36.25 17.6719 34.0703 15.9297 32.0703C15.4766 31.5469 15.5312 30.7578 16.0547 30.3047C16.5781 29.8516 17.3672 29.9062 17.8203 30.4297ZM21.2812 21.25C21.2812 22.6328 20.1641 23.75 18.7812 23.75C17.3984 23.75 16.2812 22.6328 16.2812 21.25C16.2812 19.8672 17.3984 18.75 18.7812 18.75C20.1641 18.75 21.2812 19.8672 21.2812 21.25ZM31.2812 23.75C29.8984 23.75 28.7812 22.6328 28.7812 21.25C28.7812 19.8672 29.8984 18.75 31.2812 18.75C32.6641 18.75 33.7812 19.8672 33.7812 21.25C33.7812 22.6328 32.6641 23.75 31.2812 23.75Z" fill="#9AE0A5"/>
</svg>
