<svg width="50" height="60" viewBox="0 0 50 60" fill="none" xmlns="http://www.w3.org/2000/svg">
<path d="M25.9078 59.0345C25.5502 59.8087 24.4498 59.8087 24.0922 59.0345L18.7274 47.4193C18.4213 46.7567 18.9053 46 19.6352 46H30.3648C31.0947 46 31.5787 46.7567 31.2727 47.4193L25.9078 59.0345Z" fill="#F1D14D"/>
<path d="M50 25C50 38.8071 38.8071 50 25 50C11.1929 50 0 38.8071 0 25C0 11.1929 11.1929 0 25 0C38.8071 0 50 11.1929 50 25Z" fill="#F1D14D"/>
<path d="M25 45C36.0469 45 45 36.0469 45 25C45 13.9531 36.0469 5 25 5C13.9531 5 5 13.9531 5 25C5 36.0469 13.9531 45 25 45ZM18.7812 23.75C17.3984 23.75 16.2812 22.6328 16.2812 21.25C16.2812 19.8672 17.3984 18.75 18.7812 18.75C20.1641 18.75 21.2812 19.8672 21.2812 21.25C21.2812 22.6328 20.1641 23.75 18.7812 23.75ZM33.7812 21.25C33.7812 22.6328 32.6641 23.75 31.2812 23.75C29.8984 23.75 28.7812 22.6328 28.7812 21.25C28.7812 19.8672 29.8984 18.75 31.2812 18.75C32.6641 18.75 33.7812 19.8672 33.7812 21.25ZM17.5 31.25H32.5C33.1875 31.25 33.75 31.8125 33.75 32.5C33.75 33.1875 33.1875 33.75 32.5 33.75H17.5C16.8125 33.75 16.25 33.1875 16.25 32.5C16.25 31.8125 16.8125 31.25 17.5 31.25Z" fill="#F8E8A6"/>
</svg>
