<svg width="24" height="24" viewBox="0 0 24 24" fill="none" xmlns="http://www.w3.org/2000/svg">
<path d="M23.7391 10.3692H4.66047L16.0796 0.456505C16.2622 0.296729 16.1514 0 15.9101 0H13.0243C12.8971 0 12.7765 0.0456503 12.6819 0.127169L0.359541 10.8192C0.246682 10.917 0.15617 11.038 0.0941372 11.1738C0.0321043 11.3097 0 11.4573 0 11.6067C0 11.756 0.0321043 11.9036 0.0941372 12.0395C0.15617 12.1754 0.246682 12.2963 0.359541 12.3941L12.7537 23.1513C12.8026 23.1937 12.8613 23.2166 12.9232 23.2166H15.9068C16.1481 23.2166 16.259 22.9166 16.0764 22.7601L4.66047 12.8474H23.7391C23.8826 12.8474 24 12.73 24 12.5865V10.6301C24 10.4866 23.8826 10.3692 23.7391 10.3692Z" fill="#333333"/>
</svg>
