<svg width="107" height="28" viewBox="0 0 107 28" fill="none" xmlns="http://www.w3.org/2000/svg">
<path d="M29.286 16.762C32.166 16.24 34.254 14.8 35.28 12.82C36.324 14.764 38.43 16.15 41.346 16.672L42.246 14.8C38.682 14.278 36.756 12.28 36.54 10.12H41.508V8.23H29.016V10.12H33.984C33.768 12.28 31.842 14.35 28.368 14.89L29.286 16.762ZM36.468 19.696V16.042H34.092V19.696H27.774V21.622H42.786V19.696H36.468ZM51.0196 21.766C48.8056 21.766 47.6716 21.388 47.6716 20.542C47.6716 19.696 48.8056 19.336 51.0196 19.336C53.2336 19.336 54.3676 19.696 54.3676 20.542C54.3676 21.388 53.2336 21.766 51.0196 21.766ZM51.0196 17.536C47.4376 17.536 45.2776 18.616 45.2776 20.542C45.2776 22.468 47.4376 23.566 51.0196 23.566C54.6016 23.566 56.7796 22.468 56.7796 20.542C56.7796 18.616 54.6016 17.536 51.0196 17.536ZM49.3096 13.45C49.8496 13.522 50.4256 13.558 51.0556 13.558C51.6676 13.558 52.2436 13.522 52.7656 13.468V14.836H49.3096V13.45ZM51.0556 9.022C53.3236 9.022 54.6196 9.472 54.6196 10.408C54.6196 11.308 53.3236 11.776 51.0556 11.776C48.8056 11.776 47.5096 11.308 47.5096 10.408C47.5096 9.472 48.8056 9.022 51.0556 9.022ZM55.1416 14.836V12.856C56.3656 12.316 57.0676 11.488 57.0676 10.408C57.0676 8.428 54.7276 7.222 51.0556 7.222C47.4016 7.222 45.0616 8.428 45.0616 10.408C45.0616 11.47 45.7456 12.298 46.9336 12.838V14.836H43.5676V16.708H58.5436V14.836H55.1416ZM69.1172 8.194H65.4272V6.844H63.0332V8.194H59.3432V9.976H69.1172V8.194ZM62.4392 13.09C62.4392 12.388 63.1412 12.046 64.2392 12.046C65.3372 12.046 66.0392 12.388 66.0392 13.09C66.0392 13.774 65.3372 14.116 64.2392 14.116C63.1412 14.116 62.4392 13.774 62.4392 13.09ZM68.3072 13.09C68.3072 11.416 66.7052 10.372 64.2392 10.372C61.7912 10.372 60.1712 11.416 60.1712 13.09C60.1712 14.746 61.7912 15.79 64.2392 15.79C66.7052 15.79 68.3072 14.746 68.3072 13.09ZM63.8432 20.776H72.4112V16.564H61.4672V18.292H70.0712V19.156H61.4852V23.422H72.8792V21.694H63.8432V20.776ZM72.4112 10.48V6.952H70.0352V15.916H72.4112V12.424H74.6072V10.48H72.4112ZM81.5628 10.516H84.9828V8.554H75.6948V10.516H79.1508V11.434C79.1508 14.26 77.8008 17.302 75.0288 18.544L76.3788 20.434C78.3228 19.552 79.6548 17.734 80.3928 15.574C81.1308 17.572 82.4448 19.192 84.3708 20.02L85.6668 18.148C82.8948 16.996 81.5628 14.134 81.5628 11.434V10.516ZM86.5128 6.97V23.548H88.8888V6.97H86.5128ZM99.6244 19.732V16.276H104.358V14.368H95.0884V10.012H104.232V8.104H92.6944V16.276H97.2484V19.732H90.9484V21.676H105.96V19.732H99.6244Z" fill="#30C586"/>
<path d="M12.1684 27.7273C12.0004 28.0909 11.4835 28.0909 11.3156 27.7273L8.79585 22.2719C8.6521 21.9606 8.87942 21.6052 9.22224 21.6052H14.2617C14.6045 21.6052 14.8319 21.9606 14.6881 22.2719L12.1684 27.7273Z" fill="#30C586"/>
<path d="M23.484 11.742C23.484 18.2269 18.2269 23.484 11.742 23.484C5.25706 23.484 0 18.2269 0 11.742C0 5.25706 5.25706 0 11.742 0C18.2269 0 23.484 5.25706 23.484 11.742Z" fill="#30C586"/>
<path d="M21.1356 11.742C21.1356 16.9305 16.9305 21.1356 11.742 21.1356C6.55349 21.1356 2.34839 16.9305 2.34839 11.742C2.34839 6.55349 6.55349 2.34839 11.742 2.34839C16.9305 2.34839 21.1356 6.55349 21.1356 11.742ZM9.99535 9.98068C9.99535 9.3312 9.47063 8.80648 8.82116 8.80648C8.17168 8.80648 7.64696 9.3312 7.64696 9.98068C7.64696 10.6302 8.17168 11.1549 8.82116 11.1549C9.47063 11.1549 9.99535 10.6302 9.99535 9.98068ZM14.6921 11.1549C15.3416 11.1549 15.8663 10.6302 15.8663 9.98068C15.8663 9.3312 15.3416 8.80648 14.6921 8.80648C14.0427 8.80648 13.5179 9.3312 13.5179 9.98068C13.5179 10.6302 14.0427 11.1549 14.6921 11.1549Z" fill="#ACE8CF"/>
</svg>
