<svg width="48" height="48" viewBox="0 0 48 48" fill="none" xmlns="http://www.w3.org/2000/svg">
<circle cx="24" cy="24" r="24" fill="#E35753"/>
<path d="M24.0008 4.7998C13.3979 4.7998 4.80078 13.3969 4.80078 23.9998C4.80078 34.6027 13.3979 43.1998 24.0008 43.1998C34.6036 43.1998 43.2008 34.6027 43.2008 23.9998C43.2008 13.3969 34.6036 4.7998 24.0008 4.7998ZM14.4008 20.0998C14.4118 19.5615 14.6333 19.0489 15.0179 18.6721C15.4025 18.2953 15.9195 18.0842 16.4579 18.0842C16.9964 18.0842 17.5133 18.2953 17.8979 18.6721C18.2825 19.0489 18.5041 19.5615 18.5151 20.0998C18.5041 20.6381 18.2825 21.1507 17.8979 21.5275C17.5133 21.9043 16.9964 22.1154 16.4579 22.1154C15.9195 22.1154 15.4025 21.9043 15.0179 21.5275C14.6333 21.1507 14.4118 20.6381 14.4008 20.0998ZM30.5151 31.7569H28.4536C28.2736 31.7569 28.1194 31.6198 28.1065 31.4398C27.9436 29.3184 26.1651 27.6427 24.0008 27.6427C21.8365 27.6427 20.0536 29.3184 19.8951 31.4398C19.8822 31.6198 19.7279 31.7569 19.5479 31.7569H17.4865C17.44 31.757 17.394 31.7476 17.3512 31.7293C17.3085 31.711 17.2699 31.6842 17.2378 31.6505C17.2057 31.6169 17.1808 31.577 17.1646 31.5334C17.1485 31.4898 17.1413 31.4434 17.1436 31.3969C17.3322 27.7841 20.3365 24.8998 24.0008 24.8998C27.6651 24.8998 30.6694 27.7841 30.8579 31.3969C30.8603 31.4434 30.8531 31.4898 30.8369 31.5334C30.8207 31.577 30.7958 31.6169 30.7638 31.6505C30.7317 31.6842 30.6931 31.711 30.6504 31.7293C30.6076 31.7476 30.5616 31.757 30.5151 31.7569ZM31.5436 22.1569C31.0053 22.146 30.4928 21.9244 30.1159 21.5398C29.7391 21.1552 29.5281 20.6382 29.5281 20.0998C29.5281 19.5614 29.7391 19.0444 30.1159 18.6598C30.4928 18.2752 31.0053 18.0537 31.5436 18.0427C32.082 18.0537 32.5945 18.2752 32.9713 18.6598C33.3482 19.0444 33.5592 19.5614 33.5592 20.0998C33.5592 20.6382 33.3482 21.1552 32.9713 21.5398C32.5945 21.9244 32.082 22.146 31.5436 22.1569Z" fill="white"/>
</svg>
