<svg width="48" height="48" viewBox="0 0 48 48" fill="none" xmlns="http://www.w3.org/2000/svg">
<circle cx="24" cy="24" r="24" fill="#30C586"/>
<path d="M24.0008 4.7998C13.3979 4.7998 4.80078 13.3969 4.80078 23.9998C4.80078 34.6027 13.3979 43.1998 24.0008 43.1998C34.6036 43.1998 43.2008 34.6027 43.2008 23.9998C43.2008 13.3969 34.6036 4.7998 24.0008 4.7998ZM14.4008 20.0998C14.4118 19.5615 14.6333 19.0489 15.0179 18.6721C15.4025 18.2953 15.9195 18.0842 16.4579 18.0842C16.9964 18.0842 17.5133 18.2953 17.8979 18.6721C18.2825 19.0489 18.5041 19.5615 18.5151 20.0998C18.5041 20.6381 18.2825 21.1507 17.8979 21.5275C17.5133 21.9043 16.9964 22.1154 16.4579 22.1154C15.9195 22.1154 15.4025 21.9043 15.0179 21.5275C14.6333 21.1507 14.4118 20.6381 14.4008 20.0998ZM24.0008 31.7569C20.3365 31.7569 17.3322 28.8727 17.1436 25.2598C17.1413 25.2134 17.1485 25.1669 17.1646 25.1233C17.1808 25.0797 17.2057 25.0399 17.2378 25.0062C17.2699 24.9725 17.3085 24.9457 17.3512 24.9274C17.394 24.9091 17.44 24.8997 17.4865 24.8998H19.5479C19.7279 24.8998 19.8822 25.0369 19.8951 25.2169C20.0579 27.3384 21.8365 29.0141 24.0008 29.0141C26.1651 29.0141 27.9479 27.3384 28.1065 25.2169C28.1194 25.0369 28.2736 24.8998 28.4536 24.8998H30.5151C30.5616 24.8997 30.6076 24.9091 30.6504 24.9274C30.6931 24.9457 30.7317 24.9725 30.7638 25.0062C30.7958 25.0399 30.8207 25.0797 30.8369 25.1233C30.8531 25.1669 30.8603 25.2134 30.8579 25.2598C30.6694 28.8727 27.6651 31.7569 24.0008 31.7569ZM31.5436 22.1569C31.0053 22.146 30.4928 21.9244 30.1159 21.5398C29.7391 21.1552 29.5281 20.6382 29.5281 20.0998C29.5281 19.5614 29.7391 19.0444 30.1159 18.6598C30.4928 18.2752 31.0053 18.0537 31.5436 18.0427C32.082 18.0537 32.5945 18.2752 32.9713 18.6598C33.3482 19.0444 33.5592 19.5614 33.5592 20.0998C33.5592 20.6382 33.3482 21.1552 32.9713 21.5398C32.5945 21.9244 32.082 22.146 31.5436 22.1569Z" fill="white"/>
</svg>
