<svg width="50" height="60" viewBox="0 0 50 60" fill="none" xmlns="http://www.w3.org/2000/svg">
<path d="M25.9078 59.0345C25.5502 59.8087 24.4498 59.8087 24.0922 59.0345L18.7274 47.4193C18.4213 46.7567 18.9053 46 19.6352 46H30.3648C31.0947 46 31.5787 46.7567 31.2727 47.4193L25.9078 59.0345Z" fill="#377ED2"/>
<path d="M50 25C50 38.8071 38.8071 50 25 50C11.1929 50 0 38.8071 0 25C0 11.1929 11.1929 0 25 0C38.8071 0 50 11.1929 50 25Z" fill="#377ED2"/>
<path d="M25 45C36.0469 45 45 36.0469 45 25C45 13.9531 36.0469 5 25 5C13.9531 5 5 13.9531 5 25C5 36.0469 13.9531 45 25 45ZM12.5625 29.5391C12.2656 28.4688 13.1406 27.5 14.25 27.5H35.75C36.8594 27.5 37.7422 28.4688 37.4375 29.5391C35.9531 34.8438 30.9453 38.75 25 38.75C19.0547 38.75 14.0469 34.8438 12.5625 29.5391ZM21.2812 20C21.2812 21.3828 20.1641 22.5 18.7812 22.5C17.3984 22.5 16.2812 21.3828 16.2812 20C16.2812 18.6172 17.3984 17.5 18.7812 17.5C20.1641 17.5 21.2812 18.6172 21.2812 20ZM31.2812 22.5C29.8984 22.5 28.7812 21.3828 28.7812 20C28.7812 18.6172 29.8984 17.5 31.2812 17.5C32.6641 17.5 33.7812 18.6172 33.7812 20C33.7812 21.3828 32.6641 22.5 31.2812 22.5Z" fill="#87B2E4"/>
</svg>
