<svg width="50" height="60" viewBox="0 0 50 60" fill="none" xmlns="http://www.w3.org/2000/svg">
<path d="M25.9078 59.0345C25.5502 59.8087 24.4498 59.8087 24.0922 59.0345L18.7274 47.4193C18.4213 46.7567 18.9053 46 19.6352 46H30.3648C31.0947 46 31.5787 46.7567 31.2727 47.4193L25.9078 59.0345Z" fill="#E78732"/>
<path d="M50 25C50 38.8071 38.8071 50 25 50C11.1929 50 0 38.8071 0 25C0 11.1929 11.1929 0 25 0C38.8071 0 50 11.1929 50 25Z" fill="#E78732"/>
<path d="M25 45C36.0469 45 45 36.0469 45 25C45 13.9531 36.0469 5 25 5C13.9531 5 5 13.9531 5 25C5 36.0469 13.9531 45 25 45ZM17.4453 35.3672C17.2422 36.0234 16.5391 36.3984 15.8828 36.1875C15.2266 35.9766 14.8516 35.2813 15.0625 34.625C16.3438 30.4766 20.3359 27.5 25 27.5C29.6641 27.5 33.6562 30.4766 34.9453 34.6328C35.1484 35.2891 34.7812 35.9922 34.125 36.1953C33.4687 36.3984 32.7656 36.0312 32.5625 35.375C31.6016 32.2969 28.6016 30 25 30C21.3984 30 18.3984 32.2969 17.4453 35.3672ZM21.2812 21.25C21.2812 22.6328 20.1641 23.75 18.7812 23.75C17.3984 23.75 16.2812 22.6328 16.2812 21.25C16.2812 19.8672 17.3984 18.75 18.7812 18.75C20.1641 18.75 21.2812 19.8672 21.2812 21.25ZM31.2812 23.75C29.8984 23.75 28.7812 22.6328 28.7812 21.25C28.7812 19.8672 29.8984 18.75 31.2812 18.75C32.6641 18.75 33.7812 19.8672 33.7812 21.25C33.7812 22.6328 32.6641 23.75 31.2812 23.75Z" fill="#F1B784"/>
</svg>
