<svg width="50" height="60" viewBox="0 0 50 60" fill="none" xmlns="http://www.w3.org/2000/svg">
<path d="M25.9078 59.0345C25.5502 59.8087 24.4498 59.8087 24.0922 59.0345L18.7274 47.4193C18.4213 46.7567 18.9053 46 19.6352 46H30.3648C31.0947 46 31.5787 46.7567 31.2727 47.4193L25.9078 59.0345Z" fill="#E35753"/>
<path d="M50 25C50 38.8071 38.8071 50 25 50C11.1929 50 0 38.8071 0 25C0 11.1929 11.1929 0 25 0C38.8071 0 50 11.1929 50 25Z" fill="#E35753"/>
<path d="M25 45C36.0469 45 45 36.0469 45 25C45 13.9531 36.0469 5 25 5C13.9531 5 5 13.9531 5 25C5 36.0469 13.9531 45 25 45ZM25 37.5C22.2422 37.5 20 35.2578 20 32.5C20 29.7422 22.2422 27.5 25 27.5C27.7578 27.5 30 29.7422 30 32.5C30 35.2578 27.7578 37.5 25 37.5ZM12.8672 15.3672C13.3516 14.8828 14.1484 14.8828 14.6328 15.3672L17.5 18.2344L20.3672 15.3672C20.8516 14.8828 21.6484 14.8828 22.1328 15.3672C22.6172 15.8516 22.6172 16.6484 22.1328 17.1328L19.2656 20L22.1328 22.8672C22.6172 23.3516 22.6172 24.1484 22.1328 24.6328C21.6484 25.1172 20.8516 25.1172 20.3672 24.6328L17.5 21.7656L14.6328 24.6328C14.1484 25.1172 13.3516 25.1172 12.8672 24.6328C12.3828 24.1484 12.3828 23.3516 12.8672 22.8672L15.7344 20L12.8672 17.1328C12.3828 16.6484 12.3828 15.8516 12.8672 15.3672V15.3672ZM27.8672 15.3672C28.3516 14.8828 29.1484 14.8828 29.6328 15.3672L32.5 18.2344L35.3672 15.3672C35.8516 14.8828 36.6484 14.8828 37.1328 15.3672C37.6172 15.8516 37.6172 16.6484 37.1328 17.1328L34.2656 20L37.1328 22.8672C37.6172 23.3516 37.6172 24.1484 37.1328 24.6328C36.6484 25.1172 35.8516 25.1172 35.3672 24.6328L32.5 21.7656L29.6328 24.6328C29.1484 25.1172 28.3516 25.1172 27.8672 24.6328C27.3828 24.1484 27.3828 23.3516 27.8672 22.8672L30.7344 20L27.8672 17.1328C27.3828 16.6484 27.3828 15.8516 27.8672 15.3672V15.3672Z" fill="#EE9A98"/>
</svg>
